<mxfile host="Electron" agent="Mozilla/5.0 (Macintosh; Intel Mac OS X 10_15_7) AppleWebKit/537.36 (KHTML, like Gecko) draw.io/27.0.9 Chrome/134.0.6998.205 Electron/35.4.0 Safari/537.36" version="27.0.9">
  <diagram name="Страница — 1" id="u2UL2EnWTd_96jANU8_q">
    <mxGraphModel dx="946" dy="621" grid="1" gridSize="10" guides="1" tooltips="1" connect="1" arrows="1" fold="1" page="1" pageScale="1" pageWidth="827" pageHeight="1169" math="0" shadow="0">
      <root>
        <mxCell id="0" />
        <mxCell id="1" parent="0" />
        <mxCell id="VIHfVhViry9cChKEcadO-1" value="" style="points=[[0.25,0,0],[0.5,0,0],[0.75,0,0],[1,0.25,0],[1,0.5,0],[1,0.75,0],[0.75,1,0],[0.5,1,0],[0.25,1,0],[0,0.75,0],[0,0.5,0],[0,0.25,0]];rounded=1;arcSize=10;dashed=1;fillColor=none;gradientColor=none;dashPattern=8 3 1 3;strokeWidth=2;whiteSpace=wrap;html=1;" parent="1" vertex="1">
          <mxGeometry x="510" y="450" width="300" height="310" as="geometry" />
        </mxCell>
        <mxCell id="VIHfVhViry9cChKEcadO-22" value="" style="points=[[0.25,0,0],[0.5,0,0],[0.75,0,0],[1,0.25,0],[1,0.5,0],[1,0.75,0],[0.75,1,0],[0.5,1,0],[0.25,1,0],[0,0.75,0],[0,0.5,0],[0,0.25,0]];rounded=1;arcSize=10;dashed=1;fillColor=none;gradientColor=none;dashPattern=8 3 1 3;strokeWidth=2;whiteSpace=wrap;html=1;" parent="1" vertex="1">
          <mxGeometry x="862.5" y="450" width="300" height="310" as="geometry" />
        </mxCell>
        <mxCell id="7VBXtj8w_6QsdJA1xl57-8" style="edgeStyle=orthogonalEdgeStyle;rounded=0;orthogonalLoop=1;jettySize=auto;html=1;exitX=0.5;exitY=1;exitDx=0;exitDy=0;" parent="1" source="7VBXtj8w_6QsdJA1xl57-1" target="7VBXtj8w_6QsdJA1xl57-6" edge="1">
          <mxGeometry relative="1" as="geometry" />
        </mxCell>
        <mxCell id="7VBXtj8w_6QsdJA1xl57-9" value="Оставляет заявку на депозит" style="edgeLabel;html=1;align=center;verticalAlign=middle;resizable=0;points=[];whiteSpace=wrap;" parent="7VBXtj8w_6QsdJA1xl57-8" vertex="1" connectable="0">
          <mxGeometry x="-0.2" relative="1" as="geometry">
            <mxPoint as="offset" />
          </mxGeometry>
        </mxCell>
        <mxCell id="7VBXtj8w_6QsdJA1xl57-1" value="&lt;div&gt;&lt;br&gt;&lt;/div&gt;&lt;div&gt;&lt;br&gt;&lt;/div&gt;&lt;div&gt;&amp;nbsp;&lt;/div&gt;&lt;div&gt;Новый клиент&lt;br&gt;&amp;nbsp;[Person]&lt;/div&gt;" style="shape=actor;whiteSpace=wrap;html=1;fillColor=#19197C;fontColor=#FFFFFF;" parent="1" vertex="1">
          <mxGeometry x="40" y="60" width="140" height="100" as="geometry" />
        </mxCell>
        <mxCell id="7VBXtj8w_6QsdJA1xl57-10" style="edgeStyle=orthogonalEdgeStyle;rounded=0;orthogonalLoop=1;jettySize=auto;html=1;exitX=0.5;exitY=1;exitDx=0;exitDy=0;entryX=0.5;entryY=0;entryDx=0;entryDy=0;" parent="1" source="7VBXtj8w_6QsdJA1xl57-2" target="VIHfVhViry9cChKEcadO-14" edge="1">
          <mxGeometry relative="1" as="geometry">
            <mxPoint x="980" y="450" as="targetPoint" />
          </mxGeometry>
        </mxCell>
        <mxCell id="7VBXtj8w_6QsdJA1xl57-11" value="Оставляет заявку на депозит/Подтверждает заявку кодом из СМС" style="edgeLabel;html=1;align=center;verticalAlign=middle;resizable=0;points=[];whiteSpace=wrap;" parent="7VBXtj8w_6QsdJA1xl57-10" vertex="1" connectable="0">
          <mxGeometry x="-0.0571" y="2" relative="1" as="geometry">
            <mxPoint x="-2" y="-56" as="offset" />
          </mxGeometry>
        </mxCell>
        <mxCell id="7VBXtj8w_6QsdJA1xl57-2" value="&lt;div&gt;&lt;br&gt;&lt;/div&gt;&lt;div&gt;&lt;br&gt;&lt;/div&gt;&lt;div&gt;&lt;br&gt;&lt;/div&gt;&lt;div&gt;Клиент&lt;br&gt;[Person]&lt;/div&gt;" style="shape=actor;whiteSpace=wrap;html=1;fillColor=#19197C;fontColor=#FFFFFF;" parent="1" vertex="1">
          <mxGeometry x="1321" y="60" width="140" height="100" as="geometry" />
        </mxCell>
        <mxCell id="7VBXtj8w_6QsdJA1xl57-17" style="edgeStyle=orthogonalEdgeStyle;rounded=0;orthogonalLoop=1;jettySize=auto;html=1;exitX=0.5;exitY=1;exitDx=0;exitDy=0;entryX=0.5;entryY=0;entryDx=0;entryDy=0;" parent="1" source="7VBXtj8w_6QsdJA1xl57-3" target="7VBXtj8w_6QsdJA1xl57-13" edge="1">
          <mxGeometry relative="1" as="geometry" />
        </mxCell>
        <mxCell id="7VBXtj8w_6QsdJA1xl57-18" value="Обрабатывает заявку на депозит" style="edgeLabel;html=1;align=center;verticalAlign=middle;resizable=0;points=[];whiteSpace=wrap;" parent="7VBXtj8w_6QsdJA1xl57-17" vertex="1" connectable="0">
          <mxGeometry x="-0.1636" relative="1" as="geometry">
            <mxPoint y="7" as="offset" />
          </mxGeometry>
        </mxCell>
        <mxCell id="7VBXtj8w_6QsdJA1xl57-27" style="edgeStyle=orthogonalEdgeStyle;rounded=0;orthogonalLoop=1;jettySize=auto;html=1;exitX=0;exitY=0.75;exitDx=0;exitDy=0;entryX=1;entryY=0.75;entryDx=0;entryDy=0;" parent="1" source="7VBXtj8w_6QsdJA1xl57-3" target="7VBXtj8w_6QsdJA1xl57-1" edge="1">
          <mxGeometry relative="1" as="geometry" />
        </mxCell>
        <mxCell id="7VBXtj8w_6QsdJA1xl57-28" value="Перезванивает с уточнениями по депозиту" style="edgeLabel;html=1;align=center;verticalAlign=middle;resizable=0;points=[];whiteSpace=wrap;" parent="7VBXtj8w_6QsdJA1xl57-27" vertex="1" connectable="0">
          <mxGeometry x="-0.1053" y="2" relative="1" as="geometry">
            <mxPoint as="offset" />
          </mxGeometry>
        </mxCell>
        <mxCell id="7VBXtj8w_6QsdJA1xl57-3" value="&lt;div&gt;&lt;br&gt;&lt;/div&gt;&lt;div&gt;&lt;br&gt;&lt;/div&gt;&lt;div&gt;&lt;br&gt;&lt;/div&gt;&lt;div&gt;Оператор кол-центра&lt;br&gt;[Employee]&lt;/div&gt;" style="shape=actor;whiteSpace=wrap;html=1;fontColor=#FFFFFF;fillColor=#19197C;" parent="1" vertex="1">
          <mxGeometry x="274" y="270" width="140" height="100" as="geometry" />
        </mxCell>
        <mxCell id="7VBXtj8w_6QsdJA1xl57-20" style="edgeStyle=orthogonalEdgeStyle;rounded=0;orthogonalLoop=1;jettySize=auto;html=1;exitX=0.5;exitY=1;exitDx=0;exitDy=0;entryX=0.25;entryY=0;entryDx=0;entryDy=0;" parent="1" source="7VBXtj8w_6QsdJA1xl57-4" target="VIHfVhViry9cChKEcadO-12" edge="1">
          <mxGeometry relative="1" as="geometry">
            <mxPoint x="535" y="450" as="targetPoint" />
          </mxGeometry>
        </mxCell>
        <mxCell id="7VBXtj8w_6QsdJA1xl57-23" value="Вносит сведения о новом клиенте" style="edgeLabel;html=1;align=center;verticalAlign=middle;resizable=0;points=[];whiteSpace=wrap;" parent="7VBXtj8w_6QsdJA1xl57-20" vertex="1" connectable="0">
          <mxGeometry x="-0.3391" y="-1" relative="1" as="geometry">
            <mxPoint x="1" y="-16" as="offset" />
          </mxGeometry>
        </mxCell>
        <mxCell id="7VBXtj8w_6QsdJA1xl57-4" value="&lt;div&gt;&lt;br&gt;&lt;/div&gt;&lt;div&gt;&lt;br&gt;&lt;/div&gt;&lt;div&gt;&lt;br&gt;&lt;/div&gt;&lt;div&gt;Менеджер фронт-офиса&lt;br&gt;[Employee]&lt;/div&gt;" style="shape=actor;whiteSpace=wrap;html=1;fillColor=#19197C;fontColor=#FFFFFF;" parent="1" vertex="1">
          <mxGeometry x="510" y="270" width="140" height="100" as="geometry" />
        </mxCell>
        <mxCell id="7VBXtj8w_6QsdJA1xl57-22" style="edgeStyle=orthogonalEdgeStyle;rounded=0;orthogonalLoop=1;jettySize=auto;html=1;exitX=0.5;exitY=1;exitDx=0;exitDy=0;entryX=0.75;entryY=0;entryDx=0;entryDy=0;" parent="1" source="7VBXtj8w_6QsdJA1xl57-5" target="VIHfVhViry9cChKEcadO-12" edge="1">
          <mxGeometry relative="1" as="geometry">
            <mxPoint x="605" y="450" as="targetPoint" />
          </mxGeometry>
        </mxCell>
        <mxCell id="7VBXtj8w_6QsdJA1xl57-24" value="Подтверждает или отклоняет депозит" style="edgeLabel;html=1;align=center;verticalAlign=middle;resizable=0;points=[];whiteSpace=wrap;" parent="7VBXtj8w_6QsdJA1xl57-22" vertex="1" connectable="0">
          <mxGeometry x="-0.763" y="1" relative="1" as="geometry">
            <mxPoint x="-1" y="10" as="offset" />
          </mxGeometry>
        </mxCell>
        <mxCell id="7VBXtj8w_6QsdJA1xl57-5" value="&lt;div&gt;&lt;br&gt;&lt;/div&gt;&lt;div&gt;&lt;br&gt;&lt;/div&gt;&lt;div&gt;&lt;br&gt;&lt;/div&gt;&lt;div&gt;Менеджер по депозитам&lt;br&gt;[Employee]&lt;/div&gt;" style="shape=actor;whiteSpace=wrap;html=1;fillColor=#19197C;fontColor=#FFFFFF;" parent="1" vertex="1">
          <mxGeometry x="670" y="270" width="140" height="100" as="geometry" />
        </mxCell>
        <mxCell id="7VBXtj8w_6QsdJA1xl57-15" style="edgeStyle=orthogonalEdgeStyle;rounded=0;orthogonalLoop=1;jettySize=auto;html=1;exitX=1;exitY=0.5;exitDx=0;exitDy=0;entryX=0;entryY=0.5;entryDx=0;entryDy=0;" parent="1" source="7VBXtj8w_6QsdJA1xl57-6" target="7VBXtj8w_6QsdJA1xl57-13" edge="1">
          <mxGeometry relative="1" as="geometry" />
        </mxCell>
        <mxCell id="7VBXtj8w_6QsdJA1xl57-16" value="Заявка передается в CRM" style="edgeLabel;html=1;align=center;verticalAlign=middle;resizable=0;points=[];whiteSpace=wrap;" parent="7VBXtj8w_6QsdJA1xl57-15" vertex="1" connectable="0">
          <mxGeometry x="-0.3333" y="1" relative="1" as="geometry">
            <mxPoint x="12" y="1" as="offset" />
          </mxGeometry>
        </mxCell>
        <mxCell id="7VBXtj8w_6QsdJA1xl57-6" value="Сайт&lt;br&gt;[Software System]" style="rounded=1;whiteSpace=wrap;html=1;fillColor=#4E84C3;fontColor=#FFFFFF;" parent="1" vertex="1">
          <mxGeometry x="40" y="615" width="140" height="70" as="geometry" />
        </mxCell>
        <mxCell id="7VBXtj8w_6QsdJA1xl57-25" style="edgeStyle=orthogonalEdgeStyle;rounded=0;orthogonalLoop=1;jettySize=auto;html=1;entryX=1;entryY=0.5;entryDx=0;entryDy=0;exitX=0;exitY=0.5;exitDx=0;exitDy=0;" parent="1" source="VIHfVhViry9cChKEcadO-14" target="VIHfVhViry9cChKEcadO-24" edge="1">
          <mxGeometry relative="1" as="geometry">
            <mxPoint x="1080" y="680" as="sourcePoint" />
            <mxPoint x="800" y="485" as="targetPoint" />
            <Array as="points">
              <mxPoint x="1220" y="520" />
              <mxPoint x="1220" y="520" />
            </Array>
          </mxGeometry>
        </mxCell>
        <mxCell id="7VBXtj8w_6QsdJA1xl57-26" value="Заявка передается в API по депозитам" style="edgeLabel;html=1;align=center;verticalAlign=middle;resizable=0;points=[];whiteSpace=wrap;" parent="7VBXtj8w_6QsdJA1xl57-25" vertex="1" connectable="0">
          <mxGeometry x="0.1333" y="-3" relative="1" as="geometry">
            <mxPoint x="5" y="3" as="offset" />
          </mxGeometry>
        </mxCell>
        <mxCell id="7VBXtj8w_6QsdJA1xl57-33" style="edgeStyle=orthogonalEdgeStyle;rounded=0;orthogonalLoop=1;jettySize=auto;html=1;exitX=0.25;exitY=0;exitDx=0;exitDy=0;entryX=1;entryY=0.5;entryDx=0;entryDy=0;" parent="1" source="VIHfVhViry9cChKEcadO-14" target="7VBXtj8w_6QsdJA1xl57-29" edge="1">
          <mxGeometry relative="1" as="geometry">
            <mxPoint x="990" y="830" as="sourcePoint" />
            <mxPoint x="800" y="850" as="targetPoint" />
            <Array as="points">
              <mxPoint x="1331" y="355" />
            </Array>
          </mxGeometry>
        </mxCell>
        <mxCell id="7VBXtj8w_6QsdJA1xl57-35" value="Запрос отправки кода в СМС" style="edgeLabel;html=1;align=center;verticalAlign=middle;resizable=0;points=[];whiteSpace=wrap;" parent="7VBXtj8w_6QsdJA1xl57-33" vertex="1" connectable="0">
          <mxGeometry x="-0.6762" relative="1" as="geometry">
            <mxPoint x="-131" y="-78" as="offset" />
          </mxGeometry>
        </mxCell>
        <mxCell id="7VBXtj8w_6QsdJA1xl57-30" style="edgeStyle=orthogonalEdgeStyle;rounded=0;orthogonalLoop=1;jettySize=auto;html=1;entryX=0;entryY=0.5;entryDx=0;entryDy=0;exitX=1;exitY=0.25;exitDx=0;exitDy=0;" parent="1" source="VIHfVhViry9cChKEcadO-12" target="7VBXtj8w_6QsdJA1xl57-29" edge="1">
          <mxGeometry relative="1" as="geometry">
            <mxPoint x="570" y="790" as="sourcePoint" />
            <Array as="points">
              <mxPoint x="840" y="475" />
              <mxPoint x="840" y="355" />
            </Array>
          </mxGeometry>
        </mxCell>
        <mxCell id="7VBXtj8w_6QsdJA1xl57-31" value="Отправка результата рассмотрения заявки" style="edgeLabel;html=1;align=center;verticalAlign=middle;resizable=0;points=[];whiteSpace=wrap;" parent="7VBXtj8w_6QsdJA1xl57-30" vertex="1" connectable="0">
          <mxGeometry x="-0.1667" y="3" relative="1" as="geometry">
            <mxPoint x="53" y="-115" as="offset" />
          </mxGeometry>
        </mxCell>
        <mxCell id="7VBXtj8w_6QsdJA1xl57-19" style="edgeStyle=orthogonalEdgeStyle;rounded=0;orthogonalLoop=1;jettySize=auto;html=1;exitX=1;exitY=0.5;exitDx=0;exitDy=0;entryX=0;entryY=0.5;entryDx=0;entryDy=0;entryPerimeter=0;" parent="1" source="7VBXtj8w_6QsdJA1xl57-13" target="VIHfVhViry9cChKEcadO-13" edge="1">
          <mxGeometry relative="1" as="geometry">
            <mxPoint x="414" y="690" as="sourcePoint" />
            <mxPoint x="500" y="570" as="targetPoint" />
          </mxGeometry>
        </mxCell>
        <mxCell id="7VBXtj8w_6QsdJA1xl57-21" value="Заявка передается в АБС" style="edgeLabel;html=1;align=center;verticalAlign=middle;resizable=0;points=[];whiteSpace=wrap;" parent="7VBXtj8w_6QsdJA1xl57-19" vertex="1" connectable="0">
          <mxGeometry y="1" relative="1" as="geometry">
            <mxPoint x="-52" y="1" as="offset" />
          </mxGeometry>
        </mxCell>
        <mxCell id="8XEOSdTNS2jKe0B6ZMab-3" style="edgeStyle=orthogonalEdgeStyle;rounded=0;orthogonalLoop=1;jettySize=auto;html=1;exitX=0.5;exitY=1;exitDx=0;exitDy=0;entryX=0;entryY=0.5;entryDx=0;entryDy=0;" parent="1" source="7VBXtj8w_6QsdJA1xl57-13" target="VIHfVhViry9cChKEcadO-24" edge="1">
          <mxGeometry relative="1" as="geometry">
            <Array as="points">
              <mxPoint x="344" y="820" />
              <mxPoint x="840" y="820" />
              <mxPoint x="840" y="520" />
            </Array>
          </mxGeometry>
        </mxCell>
        <mxCell id="8XEOSdTNS2jKe0B6ZMab-4" value="Запрос актуальных ставок по депозитам" style="edgeLabel;html=1;align=center;verticalAlign=middle;resizable=0;points=[];" parent="8XEOSdTNS2jKe0B6ZMab-3" vertex="1" connectable="0">
          <mxGeometry x="-0.3757" y="1" relative="1" as="geometry">
            <mxPoint as="offset" />
          </mxGeometry>
        </mxCell>
        <mxCell id="7VBXtj8w_6QsdJA1xl57-13" value="CRM&lt;div&gt;[Software System]&lt;/div&gt;" style="rounded=1;whiteSpace=wrap;html=1;fillColor=#4E84C3;fontColor=#FFFFFF;" parent="1" vertex="1">
          <mxGeometry x="274" y="615" width="140" height="70" as="geometry" />
        </mxCell>
        <mxCell id="7VBXtj8w_6QsdJA1xl57-37" style="edgeStyle=orthogonalEdgeStyle;rounded=0;orthogonalLoop=1;jettySize=auto;html=1;exitX=0.5;exitY=0;exitDx=0;exitDy=0;entryX=0.5;entryY=1;entryDx=0;entryDy=0;" parent="1" source="7VBXtj8w_6QsdJA1xl57-29" target="7VBXtj8w_6QsdJA1xl57-36" edge="1">
          <mxGeometry relative="1" as="geometry" />
        </mxCell>
        <mxCell id="7VBXtj8w_6QsdJA1xl57-38" value="Передача СМС сообщения" style="edgeLabel;html=1;align=center;verticalAlign=middle;resizable=0;points=[];whiteSpace=wrap;" parent="7VBXtj8w_6QsdJA1xl57-37" vertex="1" connectable="0">
          <mxGeometry x="-0.3714" relative="1" as="geometry">
            <mxPoint y="-8" as="offset" />
          </mxGeometry>
        </mxCell>
        <mxCell id="7VBXtj8w_6QsdJA1xl57-39" style="edgeStyle=orthogonalEdgeStyle;rounded=0;orthogonalLoop=1;jettySize=auto;html=1;entryX=0.1;entryY=0.5;entryDx=0;entryDy=0;exitX=0.5;exitY=0;exitDx=0;exitDy=0;entryPerimeter=0;" parent="1" source="7VBXtj8w_6QsdJA1xl57-36" target="7VBXtj8w_6QsdJA1xl57-2" edge="1">
          <mxGeometry relative="1" as="geometry">
            <Array as="points">
              <mxPoint x="1013" y="110" />
            </Array>
            <mxPoint x="730" y="960" as="sourcePoint" />
          </mxGeometry>
        </mxCell>
        <mxCell id="7VBXtj8w_6QsdJA1xl57-40" style="edgeStyle=orthogonalEdgeStyle;rounded=0;orthogonalLoop=1;jettySize=auto;html=1;exitX=0.5;exitY=0;exitDx=0;exitDy=0;entryX=0.9;entryY=0.5;entryDx=0;entryDy=0;entryPerimeter=0;" parent="1" source="7VBXtj8w_6QsdJA1xl57-36" target="7VBXtj8w_6QsdJA1xl57-1" edge="1">
          <mxGeometry relative="1" as="geometry">
            <Array as="points">
              <mxPoint x="1013" y="110" />
            </Array>
          </mxGeometry>
        </mxCell>
        <mxCell id="7VBXtj8w_6QsdJA1xl57-41" value="Отправка СМС" style="edgeLabel;html=1;align=center;verticalAlign=middle;resizable=0;points=[];" parent="7VBXtj8w_6QsdJA1xl57-40" vertex="1" connectable="0">
          <mxGeometry x="-0.6362" y="-1" relative="1" as="geometry">
            <mxPoint x="97" y="31" as="offset" />
          </mxGeometry>
        </mxCell>
        <mxCell id="7VBXtj8w_6QsdJA1xl57-36" value="Система телеком-оператора&lt;div&gt;[Software System]&lt;/div&gt;" style="rounded=1;whiteSpace=wrap;html=1;fillColor=#AAAAAA;fontColor=#FFFFFF;" parent="1" vertex="1">
          <mxGeometry x="942.5" y="180" width="140" height="70" as="geometry" />
        </mxCell>
        <mxCell id="VIHfVhViry9cChKEcadO-6" value="" style="group" parent="1" vertex="1" connectable="0">
          <mxGeometry x="1241" y="450" width="300" height="310" as="geometry" />
        </mxCell>
        <mxCell id="VIHfVhViry9cChKEcadO-3" value="" style="points=[[0.25,0,0],[0.5,0,0],[0.75,0,0],[1,0.25,0],[1,0.5,0],[1,0.75,0],[0.75,1,0],[0.5,1,0],[0.25,1,0],[0,0.75,0],[0,0.5,0],[0,0.25,0]];rounded=1;arcSize=10;dashed=1;fillColor=none;gradientColor=none;dashPattern=8 3 1 3;strokeWidth=2;whiteSpace=wrap;html=1;" parent="VIHfVhViry9cChKEcadO-6" vertex="1">
          <mxGeometry width="300" height="310" as="geometry" />
        </mxCell>
        <mxCell id="VIHfVhViry9cChKEcadO-4" value="Интернет-банк&lt;br&gt;[Software System]" style="text;html=1;strokeColor=none;fillColor=none;align=center;verticalAlign=middle;whiteSpace=wrap;rounded=0;" parent="VIHfVhViry9cChKEcadO-6" vertex="1">
          <mxGeometry x="10" y="260" width="100" height="30" as="geometry" />
        </mxCell>
        <mxCell id="VIHfVhViry9cChKEcadO-14" value="Веб-приложение&lt;br&gt;[ASP.NET MVC 4.5, .NET Framework 4.5]" style="rounded=1;whiteSpace=wrap;html=1;" parent="VIHfVhViry9cChKEcadO-6" vertex="1">
          <mxGeometry x="30" y="40" width="240" height="60" as="geometry" />
        </mxCell>
        <mxCell id="VIHfVhViry9cChKEcadO-16" value="База данных&lt;br&gt;[MS SQL]" style="shape=cylinder3;whiteSpace=wrap;html=1;boundedLbl=1;backgroundOutline=1;size=15;" parent="VIHfVhViry9cChKEcadO-6" vertex="1">
          <mxGeometry x="95" y="150" width="110" height="80" as="geometry" />
        </mxCell>
        <mxCell id="VIHfVhViry9cChKEcadO-18" style="edgeStyle=orthogonalEdgeStyle;rounded=0;orthogonalLoop=1;jettySize=auto;html=1;exitX=0.5;exitY=1;exitDx=0;exitDy=0;entryX=0.5;entryY=0;entryDx=0;entryDy=0;entryPerimeter=0;" parent="VIHfVhViry9cChKEcadO-6" source="VIHfVhViry9cChKEcadO-14" target="VIHfVhViry9cChKEcadO-16" edge="1">
          <mxGeometry relative="1" as="geometry" />
        </mxCell>
        <mxCell id="7VBXtj8w_6QsdJA1xl57-29" value="СМС-шлюз&lt;div&gt;[Software System]&lt;/div&gt;" style="rounded=1;whiteSpace=wrap;html=1;fillColor=#4E84C3;fontColor=#FFFFFF;" parent="1" vertex="1">
          <mxGeometry x="942.5" y="320" width="140" height="70" as="geometry" />
        </mxCell>
        <mxCell id="VIHfVhViry9cChKEcadO-35" style="edgeStyle=orthogonalEdgeStyle;rounded=0;orthogonalLoop=1;jettySize=auto;html=1;exitX=1;exitY=0.75;exitDx=0;exitDy=0;entryX=0;entryY=0.25;entryDx=0;entryDy=0;" parent="1" source="VIHfVhViry9cChKEcadO-12" target="VIHfVhViry9cChKEcadO-24" edge="1">
          <mxGeometry relative="1" as="geometry">
            <mxPoint x="826" y="650" as="targetPoint" />
            <Array as="points">
              <mxPoint x="780" y="505" />
              <mxPoint x="780" y="505" />
            </Array>
          </mxGeometry>
        </mxCell>
        <mxCell id="VIHfVhViry9cChKEcadO-39" value="Получить заявку на депозит для обработки" style="edgeLabel;html=1;align=center;verticalAlign=middle;resizable=0;points=[];" parent="VIHfVhViry9cChKEcadO-35" vertex="1" connectable="0">
          <mxGeometry x="-0.1679" relative="1" as="geometry">
            <mxPoint x="6" as="offset" />
          </mxGeometry>
        </mxCell>
        <mxCell id="VIHfVhViry9cChKEcadO-37" style="edgeStyle=orthogonalEdgeStyle;rounded=0;orthogonalLoop=1;jettySize=auto;html=1;exitX=0;exitY=0.75;exitDx=0;exitDy=0;entryX=0.5;entryY=0;entryDx=0;entryDy=0;" parent="1" source="VIHfVhViry9cChKEcadO-24" target="VIHfVhViry9cChKEcadO-36" edge="1">
          <mxGeometry relative="1" as="geometry" />
        </mxCell>
        <mxCell id="VIHfVhViry9cChKEcadO-38" value="Поставить заявку в очередь/Получить заявку из очереди" style="edgeLabel;html=1;align=center;verticalAlign=middle;resizable=0;points=[];whiteSpace=wrap;" parent="VIHfVhViry9cChKEcadO-37" vertex="1" connectable="0">
          <mxGeometry x="0.131" y="-4" relative="1" as="geometry">
            <mxPoint x="4" y="25" as="offset" />
          </mxGeometry>
        </mxCell>
        <mxCell id="8XEOSdTNS2jKe0B6ZMab-5" style="edgeStyle=orthogonalEdgeStyle;rounded=0;orthogonalLoop=1;jettySize=auto;html=1;exitX=1;exitY=0.75;exitDx=0;exitDy=0;entryX=1;entryY=0.5;entryDx=0;entryDy=0;" parent="1" source="VIHfVhViry9cChKEcadO-24" target="8XEOSdTNS2jKe0B6ZMab-6" edge="1">
          <mxGeometry relative="1" as="geometry">
            <mxPoint x="1180" y="910" as="targetPoint" />
            <Array as="points">
              <mxPoint x="1170" y="535" />
              <mxPoint x="1170" y="885" />
            </Array>
          </mxGeometry>
        </mxCell>
        <mxCell id="8XEOSdTNS2jKe0B6ZMab-7" value="Регламентная передача актуальных ставок через защищенный внешний SMTP-сервер" style="edgeLabel;html=1;align=center;verticalAlign=middle;resizable=0;points=[];whiteSpace=wrap;" parent="8XEOSdTNS2jKe0B6ZMab-5" vertex="1" connectable="0">
          <mxGeometry x="0.6469" y="-1" relative="1" as="geometry">
            <mxPoint x="355" y="1" as="offset" />
          </mxGeometry>
        </mxCell>
        <mxCell id="VIHfVhViry9cChKEcadO-24" value="API по депозитам&lt;br&gt;&amp;nbsp;[Java, Spring Boot]" style="rounded=1;whiteSpace=wrap;html=1;" parent="1" vertex="1">
          <mxGeometry x="1017.5" y="490" width="120" height="60" as="geometry" />
        </mxCell>
        <mxCell id="VIHfVhViry9cChKEcadO-25" value="База данных&lt;br&gt;[Postgres]" style="shape=cylinder3;whiteSpace=wrap;html=1;boundedLbl=1;backgroundOutline=1;size=15;" parent="1" vertex="1">
          <mxGeometry x="1025" y="630" width="105" height="65" as="geometry" />
        </mxCell>
        <mxCell id="VIHfVhViry9cChKEcadO-23" value="Микросервис по депозитам&lt;br&gt;[Software System]" style="text;html=1;strokeColor=none;fillColor=none;align=center;verticalAlign=middle;whiteSpace=wrap;rounded=0;" parent="1" vertex="1">
          <mxGeometry x="871.5" y="715" width="110" height="30" as="geometry" />
        </mxCell>
        <mxCell id="VIHfVhViry9cChKEcadO-34" style="edgeStyle=orthogonalEdgeStyle;rounded=0;orthogonalLoop=1;jettySize=auto;html=1;exitX=0.5;exitY=1;exitDx=0;exitDy=0;entryX=0.5;entryY=0;entryDx=0;entryDy=0;entryPerimeter=0;" parent="1" source="VIHfVhViry9cChKEcadO-24" target="VIHfVhViry9cChKEcadO-25" edge="1">
          <mxGeometry relative="1" as="geometry" />
        </mxCell>
        <mxCell id="INtQ6rTuRPpZIDLdK7yQ-1" value="Хранение актуальных ставок по депозитам" style="edgeLabel;html=1;align=center;verticalAlign=middle;resizable=0;points=[];whiteSpace=wrap;" vertex="1" connectable="0" parent="VIHfVhViry9cChKEcadO-34">
          <mxGeometry x="-0.225" y="2" relative="1" as="geometry">
            <mxPoint x="-2" y="9" as="offset" />
          </mxGeometry>
        </mxCell>
        <mxCell id="VIHfVhViry9cChKEcadO-10" value="АБС&lt;br&gt;[Software System]" style="text;html=1;align=center;verticalAlign=middle;whiteSpace=wrap;rounded=0;" parent="1" vertex="1">
          <mxGeometry x="520" y="710" width="100" height="30" as="geometry" />
        </mxCell>
        <mxCell id="VIHfVhViry9cChKEcadO-12" value="Desktop-клиент&lt;br&gt;[Delphi]" style="rounded=1;whiteSpace=wrap;html=1;" parent="1" vertex="1">
          <mxGeometry x="600" y="460" width="120" height="60" as="geometry" />
        </mxCell>
        <mxCell id="VIHfVhViry9cChKEcadO-17" style="edgeStyle=orthogonalEdgeStyle;rounded=0;orthogonalLoop=1;jettySize=auto;html=1;exitX=0.5;exitY=1;exitDx=0;exitDy=0;entryX=0.5;entryY=0;entryDx=0;entryDy=0;entryPerimeter=0;" parent="1" source="VIHfVhViry9cChKEcadO-12" target="VIHfVhViry9cChKEcadO-13" edge="1">
          <mxGeometry relative="1" as="geometry" />
        </mxCell>
        <mxCell id="VIHfVhViry9cChKEcadO-13" value="База данных&lt;br&gt;[Oracle]" style="shape=cylinder3;whiteSpace=wrap;html=1;boundedLbl=1;backgroundOutline=1;size=15;" parent="1" vertex="1">
          <mxGeometry x="610" y="610" width="100" height="80" as="geometry" />
        </mxCell>
        <mxCell id="VIHfVhViry9cChKEcadO-36" value="Очередь заявок по депозитам&lt;br&gt;&amp;nbsp;[Kafka]" style="rounded=1;whiteSpace=wrap;html=1;" parent="1" vertex="1">
          <mxGeometry x="880" y="630" width="120" height="60" as="geometry" />
        </mxCell>
        <mxCell id="8XEOSdTNS2jKe0B6ZMab-6" value="Система партнерского кол-центра&lt;div&gt;[Software System]&lt;/div&gt;" style="rounded=1;whiteSpace=wrap;html=1;fillColor=#AAAAAA;fontColor=#FFFFFF;" parent="1" vertex="1">
          <mxGeometry x="274" y="850" width="140" height="70" as="geometry" />
        </mxCell>
      </root>
    </mxGraphModel>
  </diagram>
</mxfile>
